<?xml version="1.0" encoding="utf-8"?>
<!-- Generator: Adobe Illustrator 17.1.0, SVG Export Plug-In . SVG Version: 6.00 Build 0)  -->
<!DOCTYPE svg PUBLIC "-//W3C//DTD SVG 1.1//EN" "http://www.w3.org/Graphics/SVG/1.1/DTD/svg11.dtd">
<svg version="1.1" id="Layer_1" xmlns="http://www.w3.org/2000/svg" xmlns:xlink="http://www.w3.org/1999/xlink" x="0px" y="0px"
	 viewBox="0 0 468 98" enable-background="new 0 0 468 98" xml:space="preserve">
<g>
	<path fill="#FFFFFF" d="M245.1,64.2V60c-2.1,3.2-5.4,4.8-9.7,4.8c-3.7,0-6.6-1.2-8.8-3.6c-2-2.3-3-5.2-3-8.8c0-3.6,1-6.6,3.1-8.9
		c2.1-2.4,5.1-3.6,8.9-3.6c4.3,0,7.4,1.5,9.5,4.6V31.7h2.4v32.5H245.1z M242.7,45c-1.7-1.9-4.2-2.8-7.3-2.8c-2.9,0-5.2,1-6.9,3
		c-1.6,1.9-2.4,4.3-2.4,7.2c0,2.9,0.8,5.3,2.3,7.2c1.7,2,4,3,7,3c3,0,5.3-1,7.1-3c1.8-1.9,2.6-4.3,2.6-7.2
		C245.1,49.2,244.3,46.7,242.7,45z"/>
	<path fill="#FFFFFF" d="M275.9,64.2V60c-2.1,3.1-5.4,4.7-9.7,4.7c-3.7,0-6.6-1.2-8.8-3.6c-2-2.2-3-5.1-3-8.6c0-3.6,1-6.5,3.1-8.8
		c2.1-2.4,5.1-3.6,8.9-3.6c4.3,0,7.4,1.5,9.5,4.6v-4.5h2.4v24H275.9z M273.5,45.2c-1.7-1.9-4.2-2.8-7.3-2.8c-2.9,0-5.3,1-7,3
		c-1.6,1.9-2.3,4.2-2.3,7.1c0,2.9,0.8,5.3,2.3,7.1c1.7,1.9,4,2.9,7,2.9c3,0,5.3-0.9,7.1-2.8s2.7-4.3,2.7-7.1
		C275.9,49.5,275.1,47,273.5,45.2z"/>
	<path fill="#FFFFFF" d="M305.1,64.2V48.9c0-2.1-0.7-3.7-2-4.8c-1.3-1.1-3.1-1.6-5.4-1.6c-2.7,0-4.8,0.8-6.3,2.4
		c-1.5,1.6-2.3,3.7-2.3,6.2v13.2h-2.4V40.7h2.4v3.2c1.8-2.5,4.7-3.7,8.6-3.7c2.8,0,5.1,0.7,6.9,2c1.9,1.5,2.9,3.6,2.9,6.2v15.7
		H305.1z"/>
	<path fill="#FFFFFF" d="M316.7,36.5c-0.5,0-0.9-0.3-1.1-1v-3.4c0.3-0.6,0.7-1,1.1-1c0.4,0,0.8,0.3,1.3,0.9v3.6
		C317.6,36.2,317.1,36.5,316.7,36.5z M315.6,64.2V40.4h2.4v23.8H315.6z"/>
	<path fill="#FFFFFF" d="M326.8,53.4c0.3,6.1,3.5,9.1,9.6,9.1c4.6,0,7.7-1.9,9.1-5.7h2.5c-0.9,3-2.5,5.1-4.7,6.3
		c-1.9,1.1-4.3,1.6-7,1.6c-3.9,0-6.9-1.1-9-3.4c-1.9-2.1-2.9-5-2.9-8.8c0-3.7,1.1-6.7,3.3-8.9c2.2-2.3,5.2-3.4,8.8-3.4
		c3.7,0,6.6,1,8.8,3.1c2.2,2.1,3.3,4.8,3.3,8.3v1.7L326.8,53.4z M336.5,42.5c-2.7,0-4.9,0.8-6.7,2.3c-1.7,1.5-2.8,3.6-3,6.3H346
		c-0.2-2.7-1.1-4.8-2.8-6.3C341.5,43.2,339.2,42.5,336.5,42.5z"/>
	<path fill="#FFFFFF" d="M354.9,64.2V31.7h2.4v32.5H354.9z"/>
	<path fill="#FFFFFF" d="M381.9,63.4c-1.8,0.9-4.1,1.4-6.9,1.4c-7.8,0-11.7-3.6-11.7-10.8h4.7c0,2.5,0.5,4.2,1.6,5.2
		c1.1,1,2.9,1.5,5.5,1.5c4,0,6-1,6-3.1c0-1.2-1.3-2.1-3.9-2.7c-0.2,0-1.8-0.3-4.8-0.7c-5.4-0.8-8-3-8-6.8c0-2.4,1.1-4.3,3.3-5.6
		c1.8-1.1,4-1.7,6.6-1.7c7.6,0,11.4,3.3,11.4,9.9h-4.7c0-2.1-0.5-3.6-1.4-4.5c-0.9-0.8-2.6-1.2-5-1.2c-1.6,0-2.9,0.3-3.9,0.9
		c-1,0.6-1.5,1.3-1.5,2.3c0,1.2,1.3,2,3.8,2.4c0.8,0.2,2.5,0.4,5,0.9c5.3,0.8,7.9,3.1,7.9,6.9C385.7,60.2,384.5,62.2,381.9,63.4z"/>
	<path fill="#FFFFFF" d="M393.4,38.2c-1,0-1.8-0.6-2.2-1.7V33c0.5-1.2,1.3-1.7,2.2-1.7c0.7,0,1.5,0.5,2.4,1.5v4.1
		C395,37.8,394.2,38.2,393.4,38.2z M391.2,64.2V39.8h4.6v24.4H391.2z"/>
	<path fill="#FFFFFF" d="M401.5,64.2V31.7h4.6v32.5H401.5z"/>
	<path fill="#FFFFFF" d="M424.3,64.2h-3.5l-12.4-23.4h5.3l8.8,17.1l8.2-17.1h5L424.3,64.2z"/>
	<path fill="#FFFFFF" d="M458.3,64.2V62c-2.2,1.8-5.1,2.7-8.7,2.7c-4,0-7.2-1.2-9.6-3.6c-2.2-2.2-3.3-5.1-3.3-8.6
		c0-3.6,1.1-6.5,3.3-8.7c2.4-2.4,5.6-3.6,9.7-3.6c3.4,0,6.2,0.9,8.5,2.6v-2.5h4.6v24H458.3z M456.1,46.5c-1.5-1.5-3.6-2.2-6.5-2.2
		c-2.6,0-4.7,0.8-6.2,2.4c-1.4,1.5-2.1,3.5-2.1,5.9s0.7,4.3,2.1,5.8c1.5,1.6,3.5,2.4,6.2,2.4c2.6,0,4.8-0.8,6.3-2.3
		c1.6-1.5,2.4-3.5,2.4-5.8C458.3,50,457.5,48,456.1,46.5z"/>
</g>
<path fill="#FFFFFF" d="M125.4,1C99,1,77.5,23.2,77.5,49.4c0,15.3-12.5,28.6-28,28.6H20V48.5c0-15.3,13.3-27.7,28.7-27.7
	c11.2,0,21.3,6.6,25.7,16c1.8-7.6,5.4-14.5,10.2-20.4C75.9,7,62.6,1,48.6,1C22.2,1,0,22.3,0,48.5V98h49.5
	c26.4,0,47.9-22.3,47.9-48.5c0-15.3,12.5-28.2,28-28.2s27.3,12.2,27.3,27.5S140,76.2,124,76.2V96c27,0,48.6-21.3,48.6-47.5
	S151.8,1,125.4,1z"/>
<line opacity="0.2" fill="none" stroke="#FFFFFF" stroke-miterlimit="10" x1="199" y1="0" x2="199" y2="96"/>
</svg>
