<?xml version="1.0" encoding="utf-8"?>
<!-- Generator: Adobe Illustrator 17.1.0, SVG Export Plug-In . SVG Version: 6.00 Build 0)  -->
<!DOCTYPE svg PUBLIC "-//W3C//DTD SVG 1.1//EN" "http://www.w3.org/Graphics/SVG/1.1/DTD/svg11.dtd">
<svg version="1.1" id="Layer_1" xmlns="http://www.w3.org/2000/svg" xmlns:xlink="http://www.w3.org/1999/xlink" x="0px" y="0px"
	 viewBox="0 0 172.6 135.9" enable-background="new 0 0 172.6 135.9" xml:space="preserve">
<g>
	<path fill="#FFFFFF" d="M17.1,135.5v-3c-1.5,2.2-3.8,3.4-6.9,3.4c-2.6,0-4.7-0.8-6.2-2.5c-1.4-1.6-2.1-3.7-2.1-6.2
		c0-2.6,0.7-4.7,2.2-6.3c1.5-1.7,3.6-2.5,6.3-2.5c3,0,5.3,1.1,6.8,3.2v-9h1.7v23.1H17.1z M15.4,121.8c-1.2-1.3-3-2-5.2-2
		c-2.1,0-3.7,0.7-4.9,2.1c-1.1,1.3-1.7,3-1.7,5.1c0,2.1,0.6,3.8,1.7,5.1c1.2,1.4,2.8,2.1,5,2.1c2.1,0,3.8-0.7,5.1-2.1
		c1.2-1.3,1.9-3,1.9-5.1C17.1,124.9,16.6,123.1,15.4,121.8z"/>
	<path fill="#FFFFFF" d="M39,135.5v-3c-1.5,2.2-3.8,3.3-6.9,3.3c-2.6,0-4.7-0.8-6.2-2.5c-1.4-1.6-2.1-3.6-2.1-6.1
		c0-2.6,0.7-4.6,2.2-6.2c1.5-1.7,3.6-2.5,6.3-2.5c3,0,5.3,1.1,6.8,3.2v-3.2h1.7v17H39z M37.3,122c-1.2-1.3-3-2-5.2-2
		c-2.1,0-3.7,0.7-5,2.1c-1.1,1.3-1.7,3-1.7,5c0,2.1,0.6,3.7,1.7,5c1.2,1.4,2.8,2,5,2c2.1,0,3.8-0.7,5-2c1.3-1.3,1.9-3,1.9-5
		C39,125,38.4,123.3,37.3,122z"/>
	<path fill="#FFFFFF" d="M59.7,135.5v-10.8c0-1.5-0.5-2.6-1.4-3.4c-0.9-0.7-2.2-1.1-3.8-1.1c-1.9,0-3.4,0.6-4.5,1.7
		c-1.1,1.1-1.6,2.6-1.6,4.4v9.3h-1.7v-16.6h1.7v2.3c1.3-1.8,3.4-2.7,6.1-2.7c2,0,3.7,0.5,4.9,1.4c1.4,1,2.1,2.5,2.1,4.4v11.2H59.7z"
		/>
	<path fill="#FFFFFF" d="M68,115.9c-0.4,0-0.6-0.2-0.8-0.7v-2.4c0.2-0.5,0.5-0.7,0.8-0.7c0.3,0,0.6,0.2,0.9,0.6v2.5
		C68.6,115.7,68.3,115.9,68,115.9z M67.2,135.5v-16.9h1.7v16.9H67.2z"/>
	<path fill="#FFFFFF" d="M75.1,127.8c0.2,4.3,2.5,6.5,6.8,6.5c3.3,0,5.4-1.3,6.5-4h1.8c-0.7,2.1-1.8,3.6-3.4,4.5
		c-1.4,0.8-3,1.2-5,1.2c-2.8,0-4.9-0.8-6.4-2.4c-1.4-1.5-2.1-3.6-2.1-6.2c0-2.6,0.8-4.7,2.4-6.3c1.6-1.6,3.7-2.4,6.3-2.4
		s4.7,0.7,6.3,2.2c1.6,1.5,2.3,3.4,2.3,5.9v1.2L75.1,127.8z M82,120.1c-1.9,0-3.5,0.5-4.7,1.6c-1.2,1.1-2,2.6-2.2,4.5h13.6
		c-0.1-1.9-0.8-3.4-2-4.5C85.5,120.6,84,120.1,82,120.1z"/>
	<path fill="#FFFFFF" d="M95.1,135.5v-23.1h1.7v23.1H95.1z"/>
	<path fill="#FFFFFF" d="M114.3,134.9c-1.3,0.7-2.9,1-4.9,1c-5.5,0-8.3-2.6-8.3-7.7h3.3c0,1.8,0.4,3,1.1,3.7c0.7,0.7,2,1,3.9,1
		c2.8,0,4.2-0.7,4.2-2.2c0-0.9-0.9-1.5-2.8-1.9c-0.2,0-1.3-0.2-3.4-0.5c-3.8-0.5-5.7-2.1-5.7-4.8c0-1.7,0.8-3,2.4-4
		c1.3-0.8,2.9-1.2,4.7-1.2c5.4,0,8.1,2.3,8.1,7h-3.4c0-1.5-0.3-2.6-1-3.2c-0.7-0.6-1.9-0.9-3.5-0.9c-1.1,0-2.1,0.2-2.8,0.6
		c-0.7,0.4-1.1,0.9-1.1,1.6c0,0.8,0.9,1.4,2.7,1.7c0.6,0.1,1.8,0.3,3.6,0.6c3.8,0.6,5.6,2.2,5.6,4.9
		C117,132.6,116.1,134,114.3,134.9z"/>
	<path fill="#FFFFFF" d="M122.4,117.1c-0.7,0-1.2-0.4-1.6-1.2v-2.5c0.4-0.8,0.9-1.2,1.6-1.2c0.5,0,1.1,0.4,1.7,1.1v2.9
		C123.5,116.7,123,117.1,122.4,117.1z M120.9,135.5v-17.3h3.3v17.3H120.9z"/>
	<path fill="#FFFFFF" d="M128.2,135.5v-23.1h3.3v23.1H128.2z"/>
	<path fill="#FFFFFF" d="M144.4,135.5h-2.5l-8.8-16.6h3.7l6.3,12.1l5.8-12.1h3.6L144.4,135.5z"/>
	<path fill="#FFFFFF" d="M168.5,135.5v-1.6c-1.6,1.3-3.6,1.9-6.1,1.9c-2.9,0-5.1-0.8-6.8-2.5c-1.6-1.6-2.3-3.6-2.3-6.1
		c0-2.5,0.8-4.6,2.4-6.2c1.7-1.7,4-2.5,6.9-2.5c2.4,0,4.4,0.6,6,1.8v-1.8h3.3v17H168.5z M166.9,122.9c-1.1-1-2.6-1.6-4.6-1.6
		c-1.9,0-3.3,0.6-4.4,1.7c-1,1.1-1.5,2.4-1.5,4.1s0.5,3.1,1.5,4.1c1,1.1,2.5,1.7,4.4,1.7c1.9,0,3.4-0.5,4.5-1.6
		c1.1-1.1,1.7-2.5,1.7-4.1C168.5,125.4,168,124,166.9,122.9z"/>
</g>
<path fill="#FFFFFF" d="M125.5,0C99.1,0,77.7,22.2,77.7,48.4C77.7,63.7,65.1,77,49.8,77H20V47.5c0-15.3,13.4-27.7,28.8-27.7
	c11.2,0,21.3,6.6,25.7,16c1.8-7.6,5.5-14.5,10.2-20.4C76,6,62.6,0,48.7,0C22.3,0,0,21.3,0,47.5V97h49.8c26.4,0,47.8-22.3,47.8-48.5
	c0-15.3,12.5-28.2,27.9-28.2s27.2,12.2,27.2,27.5S140,75.2,124,75.2V95c27,0,48.6-21.3,48.6-47.5S151.9,0,125.5,0z"/>
</svg>
